<?xml version="1.0" encoding="UTF-8"?>
<!-- Generator: Adobe Illustrator 25.2.3, SVG Export Plug-In . SVG Version: 6.00 Build 0)  -->
<svg version="1.1" id="Layer_1" xmlns="http://www.w3.org/2000/svg" xmlns:xlink="http://www.w3.org/1999/xlink" x="0px" y="0px" viewBox="0 0 12091.09 1658.55" style="enable-background:new 0 0 12091.09 1658.55;" xml:space="preserve">
<g id="XMLID_3268_">
	<g>
		<path d="M1884.14,516.48l402.41,1076.1h-245.66l-81.39-239.64h-402.41l-84.4,239.64h-238.13l406.93-1076.1H1884.14z     M1897.71,1176.6l-135.64-394.87h-3.01l-140.17,394.87H1897.71z"/>
		<path d="M2960.24,516.48c48.23,0,91.68,7.79,130.37,23.36c38.67,15.59,71.83,36.92,99.47,64.06    c27.62,27.12,48.72,58.54,63.3,94.19c14.55,35.68,21.86,74.11,21.86,115.3c0,63.31-13.33,118.08-39.94,164.29    c-26.63,46.23-70.08,81.38-130.37,105.5v3.01c29.13,8.06,53.25,20.36,72.35,36.93c19.07,16.58,34.66,36.17,46.72,58.78    c12.06,22.61,20.84,47.47,26.37,74.6c5.51,27.12,9.28,54.26,11.3,81.38c0.99,17.1,2,37.19,3.01,60.29    c0.99,23.12,2.76,46.72,5.28,70.84c2.5,24.11,6.52,46.98,12.05,68.58c5.51,21.62,13.8,39.94,24.87,55.01h-236.62    c-13.07-34.15-21.1-74.84-24.12-122.08c-3.01-47.22-7.53-92.43-13.56-135.65c-8.06-56.25-25.13-97.44-51.24-123.58    c-26.14-26.11-68.83-39.18-128.11-39.18h-236.62v420.49h-236.62V516.48H2960.24z M2875.85,1003.28    c54.25,0,94.95-12.06,122.08-36.16c27.13-24.12,40.7-63.31,40.7-117.57c0-52.23-13.57-90.17-40.7-113.79    c-27.12-23.59-67.82-35.41-122.08-35.41h-259.23v302.93H2875.85z"/>
		<path d="M3704.75,516.48v446.11l420.49-446.11h295.4l-420.49,425.01l461.19,651.09h-296.91l-324.04-483.79l-135.64,137.14v346.65    h-236.62V516.48H3704.75z"/>
		<path d="M5361.08,516.48v198.94h-568.19v230.59h521.47v183.87h-521.47v263.76h580.25v198.94h-816.87V516.48H5361.08z"/>
		<path d="M5448.49,715.42V516.48h881.69v198.94h-322.53v877.16h-236.62V715.42H5448.49z"/>
		<path d="M6634.61,1327.32c13.04,25.12,30.38,45.47,51.99,61.04c21.59,15.59,46.96,27.12,76.11,34.66    c29.13,7.54,59.27,11.31,90.43,11.31c21.1,0,43.71-1.75,67.82-5.28c24.12-3.51,46.72-10.29,67.82-20.35    c21.1-10.03,38.67-23.86,52.75-41.44c14.06-17.57,21.1-39.94,21.1-67.08c0-29.13-9.3-52.75-27.88-70.84    c-18.6-18.09-42.96-33.15-73.1-45.21c-30.14-12.06-64.31-22.61-102.48-31.65c-38.2-9.04-76.86-19.07-116.05-30.14    c-40.2-10.02-79.39-22.35-117.56-36.92c-38.2-14.55-72.35-33.39-102.48-56.52c-30.14-23.1-54.52-52-73.1-86.66    c-18.6-34.66-27.88-76.61-27.88-125.84c0-55.25,11.8-103.24,35.42-143.93c23.59-40.69,54.49-74.6,92.69-101.74    c38.18-27.12,81.39-47.21,129.62-60.28c48.23-13.05,96.46-19.6,144.69-19.6c56.26,0,110.25,6.29,162.02,18.84    c51.74,12.58,97.71,32.93,137.91,61.04c40.17,28.14,72.08,64.06,95.7,107.77c23.6,43.7,35.42,96.72,35.42,159h-229.08    c-2.03-32.14-8.81-58.78-20.35-79.87c-11.56-21.11-26.89-37.68-45.97-49.74c-19.1-12.06-40.95-20.58-65.56-25.61    c-24.63-5.02-51.5-7.54-80.63-7.54c-19.1,0-38.2,2.02-57.27,6.03c-19.1,4.03-36.43,11.07-52,21.1    c-15.59,10.05-28.4,22.61-38.43,37.68c-10.05,15.07-15.07,34.17-15.07,57.27c0,21.11,4.01,38.2,12.06,51.25    c8.03,13.06,23.86,25.12,47.48,36.17c23.6,11.06,56.26,22.11,97.96,33.15c41.68,11.07,96.2,25.12,163.53,42.2    c20.09,4.03,47.97,11.3,83.65,21.86c35.65,10.55,71.07,27.38,106.25,50.49c35.16,23.12,65.56,54.02,91.18,92.68    c25.62,38.7,38.43,88.17,38.43,148.46c0,49.24-9.56,94.95-28.63,137.15c-19.1,42.2-47.48,78.63-85.15,109.27    c-37.68,30.66-84.4,54.52-140.17,71.59c-55.76,17.08-120.34,25.62-193.67,25.62c-59.3,0-116.8-7.3-172.57-21.86    c-55.76-14.55-105.01-37.42-147.7-68.58c-42.72-31.13-76.63-70.84-101.73-119.07c-25.13-48.23-37.18-105.5-36.17-171.81h229.08    C6615.01,1271.55,6621.54,1302.22,6634.61,1327.32z"/>
		<path d="M7584.1,516.48l357.19,943.47l370.76-943.47h150.71v1076.1h-102.48V662.67h-3.01l-367.74,929.91h-96.46l-354.18-929.91    h-3.01v929.91h-102.49V516.48H7584.1z"/>
		<path d="M9416.79,516.48v87.41h-640.54v388.84h599.84v87.41h-599.84v425.02h648.07v87.41h-750.56V516.48H9416.79z"/>
		<path d="M9939.75,516.48c163.76,4.03,287.11,49.99,370,137.9c82.89,87.94,124.34,221.32,124.34,400.15    c0,178.85-41.45,312.23-124.34,400.15c-82.89,87.94-206.25,133.9-370,137.9h-372.27V516.48H9939.75z M9888.5,1505.17    c77.36,0,143.93-8.29,199.7-24.87c55.76-16.58,101.73-42.95,137.9-79.12c36.17-36.17,62.78-82.89,79.88-140.16    c17.08-57.27,25.62-126.08,25.62-206.48c0-80.38-8.55-149.21-25.62-206.48c-17.09-57.28-43.71-104-79.88-140.17    s-82.14-62.55-137.9-79.12c-55.77-16.58-122.34-24.86-199.7-24.86h-218.54v901.28H9888.5z"/>
		<path d="M10709.89,516.48v1076.1h-102.49V516.48H10709.89z"/>
		<path d="M11363.97,516.48l422,1076.1h-110.02l-131.12-334.59H11055l-129.61,334.59h-108.51l432.55-1076.1H11363.97z     M11510.17,1170.57l-207.99-551.62l-215.53,551.62H11510.17z"/>
	</g>
	<g id="XMLID_3269_">
		<path id="XMLID_3270_" d="M1221.15,1108.03l364.61-959.88c-123.52-67.67-265.06-106.3-415.66-106.3    c-477.69,0-864.98,387.25-864.98,864.99c0,248.98,105.33,473.26,273.75,631.1L945.39,412.93L1221.15,1108.03z"/>
	</g>
</g>
</svg>