<?xml version="1.0" encoding="UTF-8"?>
<!-- Generator: Adobe Illustrator 25.2.3, SVG Export Plug-In . SVG Version: 6.00 Build 0)  -->
<svg version="1.1" id="Layer_1" xmlns="http://www.w3.org/2000/svg" xmlns:xlink="http://www.w3.org/1999/xlink" x="0px" y="0px" viewBox="0 0 272 90" style="enable-background:new 0 0 272 90;" xml:space="preserve">
<style type="text/css">
	.st0{fill:#6FB8E6;}
</style>
<g>
	<path d="M11.3,1.5h21C46,1.5,55.2,2,59.9,3c4.8,1,8.4,2.7,10.9,4.9c2.5,2.3,4.1,4.9,4.7,7.7c0.6,2.8,0.9,8.3,0.9,16.6v30.5   c0,7.8-0.5,13-1.4,15.7c-0.9,2.6-2.5,4.7-4.8,6.2c-2.3,1.5-5.1,2.5-8.4,3.1c-3.3,0.6-8.4,0.9-15.1,0.9H11.3V1.5z M39.5,16.4v57.3   c4.1,0,6.5-0.7,7.5-2c0.9-1.3,1.4-4.9,1.4-10.7V27.2c0-3.9-0.2-6.5-0.5-7.6c-0.3-1.1-1-1.9-2.1-2.4C44.6,16.6,42.5,16.4,39.5,16.4z   "/>
	<path d="M80.1,1.5H127v17.4h-18.8v16.5h17.6V52h-17.6v19.2h20.6v17.4H80.1V1.5z"/>
	<path d="M189.7,27.8h-26.1v-6.5c0-3-0.3-4.9-1-5.8c-0.7-0.8-1.8-1.2-3.3-1.2c-1.7,0-3,0.6-3.8,1.7c-0.9,1.1-1.3,2.8-1.3,5.1   c0,2.9,0.5,5.1,1.5,6.6c0.9,1.5,3.6,3.2,8,5.3c12.5,6,20.4,10.9,23.7,14.7c3.2,3.8,4.9,10,4.9,18.6c0,6.2-0.9,10.8-2.7,13.7   c-1.8,2.9-5.3,5.4-10.5,7.4c-5.2,2-11.2,3-18,3c-7.5,0-14-1.1-19.3-3.4c-5.3-2.3-8.8-5.2-10.5-8.8c-1.6-3.6-2.5-8.6-2.5-15.1v-5.7   h26.1v10.6c0,3.3,0.4,5.4,1.1,6.3s2,1.4,3.9,1.4c1.9,0,3.3-0.6,4.2-1.8c0.9-1.2,1.4-2.9,1.4-5.3c0-5.1-0.9-8.5-2.6-10.1   c-1.8-1.6-6.2-4.2-13.2-7.9c-7-3.7-11.6-6.4-13.9-8.1c-2.3-1.7-4.2-4-5.6-7s-2.2-6.8-2.2-11.4c0-6.7,1.1-11.5,3.2-14.6   c2.1-3.1,5.5-5.5,10.3-7.2c4.7-1.7,10.4-2.6,17.1-2.6c7.3,0,13.5,1,18.7,2.9c5.1,1.9,8.6,4.3,10.2,7.2s2.5,7.8,2.5,14.7L189.7,27.8   L189.7,27.8z"/>
	<path d="M261.1,1.5L245,40.8l17.7,47.8h-29.1l-11.4-37.3v37.3h-28.1V1.5h28.1v33.8l12.5-33.8C234.7,1.5,261.1,1.5,261.1,1.5z"/>
</g>
<g>
	<path class="st0" d="M20.3,5.8h-2.6v9.8h-2.4V5.8h-2.6V3.9h7.5V5.8z"/>
	<path class="st0" d="M22.9,3.9v4.5h2.8V3.9H28v11.7h-2.4v-5.2h-2.8v5.2h-2.4V3.9H22.9z"/>
	<path class="st0" d="M35.4,5.8h-4.2v2.8h3.9v1.9h-3.9v3.2h4.4v1.9h-6.7V3.9h6.6C35.4,3.9,35.4,5.8,35.4,5.8z"/>
</g>
</svg>