<?xml version="1.0" encoding="UTF-8"?>
<!-- Generator: Adobe Illustrator 25.2.3, SVG Export Plug-In . SVG Version: 6.00 Build 0)  -->
<svg version="1.1" id="Layer_1" xmlns="http://www.w3.org/2000/svg" xmlns:xlink="http://www.w3.org/1999/xlink" x="0px" y="0px" viewBox="0 0 484.71 62.77" style="enable-background:new 0 0 484.71 62.77;" xml:space="preserve">
<style type="text/css">
	.st0{fill:#ED1C24;}
</style>
<g>
	<g>
		<path class="st0" d="M268.92,61.35L258.34,8.39v48.04c-0.09,2.37,0.36,2.92,2.28,2.92h1.19v2.01h-9.21v-2.01h1.19    c1.91,0,2.37-0.55,2.37-2.92V2.55h-3.01V0.55h10.67l8.57,44.58l8.39-44.58h10.76v2.01h-3.01v56.8h3.01v2.01h-12.67v-2.01h3.01    V8.48l-10.48,52.88H268.92z"/>
		<path class="st0" d="M302.65,44.31l-1.91,11.94c-0.27,1.64-0.27,1.64-0.27,2.01c0,0.73,0.55,1.09,2.01,1.09h0.82v2.01h-9.39v-2.01    h1c2.37-0.09,2.92-0.73,3.56-4.1l9.85-54.7h2.92l10.21,58.8h3.01v2.01h-12.95v-2.01h3.1l-2.46-15.04H302.65z M307.94,15.68    L303.2,42.3h8.66L307.94,15.68z"/>
		<path class="st0" d="M347.5,21.88h-2.1v-4.92c0-8.39-3.1-14.95-7.11-14.95c-2.1,0-3.83,1.37-4.92,3.83    c-1.19,2.55-1.64,6.47-1.64,13.68v23.34c0,12.31,1.55,17.05,5.56,17.05c1.37,0,2.64-0.82,3.19-2.01c0.73-1.46,0.82-2.46,0.82-7.02    V37.29h-3.01v-2.01h12.67v2.01h-3.01v15.86c-2.92,5.83-6.38,8.75-10.58,8.75c-7.48,0-13.22-10.39-13.22-23.98V23.98    C324.16,10.3,330.18,0,338.2,0c2.37,0,4.1,0.82,6.02,2.92l1.28-2.37h1.91L347.5,21.88z"/>
		<path class="st0" d="M357.53,44.31l-1.91,11.94c-0.27,1.64-0.27,1.64-0.27,2.01c0,0.73,0.55,1.09,2.01,1.09h0.82v2.01h-9.39v-2.01    h1c2.37-0.09,2.92-0.73,3.56-4.1l9.85-54.7h2.92l10.21,58.8h3.01v2.01h-12.95v-2.01h3.1l-2.46-15.04H357.53z M362.82,15.68    l-4.74,26.62h8.66L362.82,15.68z"/>
		<path class="st0" d="M405.3,61.35h-23.61v-1.82l17.14-56.98h-1.09c-7.75-0.18-11.67,3.92-12.03,12.4v3.56h-2.1V0.55h22.34v1.82    l-17.05,56.98h1.19c9.03,0.27,12.76-3.56,13.86-14.31v-3.46h2.1L405.3,61.35z"/>
		<path class="st0" d="M419.25,59.35h3.01v2.01h-12.67v-2.01h3.01V2.55h-3.01V0.55h12.67v2.01h-3.01V59.35z"/>
		<path class="st0" d="M448.42,61.35L431.47,9.48v46.95c0,2.37,0.36,2.83,2.37,2.92h1.19v2.01h-9.3v-2.01h1.19    c2.01-0.09,2.37-0.55,2.37-2.92V5.47c-0.09-2.73-0.36-3.01-3.56-2.92V0.55h10.21l14.68,46.22V5.47c-0.09-2.73-0.27-3.01-3.56-2.92    V0.55h9.39v2.01c-3.37-0.09-3.56,0.18-3.65,2.92v55.89H448.42z"/>
		<path class="st0" d="M469.57,59.35h1c7.57,0,11.12-4.38,12.03-14.86h2.1l-0.64,16.87h-24.16v-2.01h3.01V2.55h-3.01V0.55h23.7    v15.22h-2.1c-0.46-9.03-4.28-13.49-11.3-13.22h-0.64v26.71c4.92,0.09,7.02-3.01,7.2-11.03h2.1v23.98h-2.1    c-0.18-7.48-2.55-11.12-7.2-10.94V59.35z"/>
	</g>
	<g>
		<path class="st0" d="M0.76,0.69h30.58l0.76,19.39H30.2C29.67,15.5,28.98,9.18,25,5.19c-1.99-2.08-3.9-2.42-5.43-2.68v57.57h3.59    v1.82H8.95v-1.82h3.59V2.51c-1.61,0.35-3.75,0.78-5.96,3.46c-3.36,4.07-4.13,9.7-4.66,14.11H0L0.76,0.69z"/>
		<path class="st0" d="M36.01,0.69h13c4.43,0.09,10.78,0.17,14.14,6.75c0.84,1.64,1.53,4.07,1.53,7.36c0,6.67-2.68,9.87-4.13,11.34    c-2.52,2.6-4.82,3.29-7.19,3.9c2.91,0.61,6.8,1.47,9.17,5.54c1.61,2.86,2.07,6.84,2.22,9.52c0.23,2.34,0.31,4.59,0.54,6.93    c0.38,4.68,0.77,6.93,2.37,6.93c0.92,0,1.38-0.61,1.91-1.3l1.15,1.39c-1.53,1.73-2.75,3.12-5.43,3.12c-5.96,0-7.03-7.01-7.34-8.83    c-0.23-1.65-0.76-9.78-0.92-11.6c-0.92-10.13-3.59-10.74-10.4-10.74v29.09h3.75v1.82H36.01v-1.82h3.59V2.51h-3.59V0.69z M46.64,29    c3.44,0,4.05,0,5.12-0.26c3.9-1.13,5.35-5.28,5.35-13.16c0-12.29-2.98-13.16-10.47-13.07V29z"/>
		<path class="st0" d="M86.09,0.78h2.83l11.93,59.3h3.59v1.82h-14.6v-1.82h3.75L90.6,45.45H78.75l-2.06,10.22    c-0.15,0.78-0.38,1.65-0.38,2.51c0,1.99,1.45,1.99,3.36,1.91v1.82H69.19v-1.82c3.67,0,4.51-0.61,5.5-5.37L86.09,0.78z M84.87,15.5    l-5.73,28.05h11.16L84.87,15.5z"/>
		<path class="st0" d="M105.89,0.69h11.54c4.13,0,9.71-0.09,14.37,5.8c6.27,7.79,6.27,19.31,6.27,22.51c0,4.76-0.38,11-2.22,16.97    c-1.3,3.98-3.21,8.05-6.27,11.25c-4.36,4.59-7.8,4.59-12.31,4.67h-11.39v-1.82h3.67V2.51h-3.67V0.69z M116.6,60.08    c3.52,0.09,6.19,0.09,8.72-2.86c3.98-4.59,4.82-14.29,4.82-26.58c0-12.55-0.61-17.92-2.29-22.08c-2.45-6.06-6.42-6.23-11.24-6.06    V60.08z"/>
		<path class="st0" d="M142.59,0.69h26.99v16.19h-1.84c-0.08-2.08-0.38-7.45-3.97-11.08c-3.14-3.29-6.88-3.29-10.55-3.29v26.75    c2.14,0,4.43-0.09,6.27-1.99c2.37-2.51,2.52-6.58,2.68-9.52H164V42.6h-1.83c-0.08-2.08-0.23-4.33-1.07-6.41    c-1.83-4.76-5.43-4.85-7.87-4.94v28.83c3.52-0.09,7.49-0.09,10.7-3.2c3.75-3.72,4.51-9.52,4.97-13.59h1.76l-0.69,18.61h-27.37    v-1.82h3.52V2.51h-3.52V0.69z"/>
		<path class="st0" d="M175.69,0.69h13c4.43,0.09,10.78,0.17,14.14,6.75c0.84,1.64,1.53,4.07,1.53,7.36c0,6.67-2.68,9.87-4.13,11.34    c-2.52,2.6-4.82,3.29-7.19,3.9c2.91,0.61,6.8,1.47,9.17,5.54c1.61,2.86,2.07,6.84,2.22,9.52c0.23,2.34,0.31,4.59,0.54,6.93    c0.38,4.68,0.76,6.93,2.37,6.93c0.92,0,1.38-0.61,1.91-1.3l1.15,1.39c-1.53,1.73-2.75,3.12-5.43,3.12c-5.96,0-7.03-7.01-7.34-8.83    c-0.23-1.65-0.76-9.78-0.92-11.6c-0.92-10.13-3.59-10.74-10.4-10.74v29.09h3.75v1.82h-14.37v-1.82h3.59V2.51h-3.59V0.69z     M186.32,29c3.44,0,4.05,0,5.12-0.26c3.9-1.13,5.35-5.28,5.35-13.16c0-12.29-2.98-13.16-10.47-13.07V29z"/>
		<path class="st0" d="M214.46,41.21c0.53,4.76,0.99,9.44,3.59,13.85c2.29,3.98,4.89,5.28,7.42,5.28c4.82,0,7.64-4.67,7.64-10.39    c0-7.27-4.28-10.99-10.86-16.62c-4.82-4.16-9.71-8.4-9.71-17.92c0-7.71,4.59-15.41,11.39-15.41c4.66,0,6.42,2.77,7.65,4.68    l1.68-3.9h1.61l0.31,17.83h-1.91c-0.92-5.89-2.52-16.28-9.25-16.28c-3.75,0-6.8,3.38-6.8,8.66c0,5.63,2.37,7.88,9.94,14.46    c5.66,4.93,10.32,9.09,10.32,19.13c0,9.09-4.28,18.18-12,18.18c-5.35,0-8.18-4.16-9.17-5.71l-2.14,4.85h-1.61V41.21H214.46z"/>
	</g>
</g>
</svg>