<?xml version="1.0" encoding="UTF-8" standalone="no"?>
<!DOCTYPE svg PUBLIC "-//W3C//DTD SVG 1.1//EN" "http://www.w3.org/Graphics/SVG/1.1/DTD/svg11.dtd">
<svg width="100%" height="100%" viewBox="0 0 2030 600" version="1.1" xmlns="http://www.w3.org/2000/svg" xmlns:xlink="http://www.w3.org/1999/xlink" xml:space="preserve" xmlns:serif="http://www.serif.com/" style="fill-rule:evenodd;clip-rule:evenodd;stroke-linejoin:round;stroke-miterlimit:2;">
    <g transform="matrix(4.16667,0,0,4.16667,-173,-1930.88)">
        <g transform="matrix(-1,0,0,1,677.587,-209.934)">
            <rect x="173.832" y="791.702" width="329.923" height="1.41" style="fill:rgb(203,34,131);"/>
        </g>
        <g transform="matrix(0.999999,0,0,0.999999,374.091,558.438)">
            <path d="M0,-1.066C4.853,-1.066 6.897,-3.322 6.897,-7.154C6.897,-11.071 4.598,-13.243 0.128,-13.243L-9.027,-13.243L-9.027,-1.066L0,-1.066ZM-11.88,-15.755L0.511,-15.755C3.789,-15.755 6.045,-14.776 7.622,-13.115C9.027,-11.668 9.75,-9.751 9.75,-7.24C9.75,-2.938 7.536,-0.086 3.661,0.978L10.9,14.689L7.749,14.689L0.852,1.362L-9.027,1.362L-9.027,14.689L-11.88,14.689L-11.88,-15.755Z" style="fill:rgb(7,36,60);fill-rule:nonzero;"/>
        </g>
        <g transform="matrix(0.999999,0,0,0.999999,177.839,546.32)">
            <path d="M0,23.205C-2.639,20.31 -4.088,16.308 -4.088,11.666C-4.088,6.897 -2.469,2.683 0.427,-0.214C2.938,-2.767 6.472,-4.258 10.858,-4.258C18.692,-4.258 23.375,-0.086 24.355,6.302L17.031,6.302C16.478,3.831 14.435,1.958 11.113,1.958C6.089,1.958 3.577,6.131 3.577,11.666C3.577,17.244 6.472,21.374 11.241,21.374C15.2,21.374 17.542,18.735 17.841,16.052L17.841,15.967L12.135,15.967L12.135,10.431L24.824,10.431L24.824,26.782L19.544,26.782L19.119,23.121L19.033,23.121C17.031,26.228 14.052,27.463 10.389,27.463C6.047,27.463 2.513,25.93 0,23.205" style="fill:rgb(7,36,60);fill-rule:nonzero;"/>
        </g>
        <g transform="matrix(0.999999,0,0,0.999999,206.788,573.102)">
            <path d="M0,-30.444L7.538,-30.444L7.538,-6.386L21.205,-6.386L21.205,0L0,0L0,-30.444Z" style="fill:rgb(7,36,60);fill-rule:nonzero;"/>
        </g>
        <g transform="matrix(0.999999,0,0,0.999999,250.524,557.944)">
            <path d="M0,0C0,-5.534 -2.428,-9.794 -7.366,-9.794C-12.263,-9.794 -14.775,-5.534 -14.775,0C-14.775,5.534 -12.263,9.75 -7.366,9.75C-2.428,9.75 0,5.534 0,0M-22.439,0C-22.439,-9.113 -16.606,-15.881 -7.409,-15.881C1.831,-15.881 7.664,-9.113 7.664,0C7.664,9.113 1.831,15.881 -7.409,15.881C-16.606,15.881 -22.439,9.113 -22.439,0" style="fill:rgb(7,36,60);fill-rule:nonzero;"/>
        </g>
        <g transform="matrix(0.999999,0,0,0.999999,274.831,548.703)">
            <path d="M0,18.354C2.47,18.354 4.003,16.948 4.003,14.776C4.003,12.349 2.216,11.115 -0.084,11.115L-6.727,11.115L-6.727,18.354L0,18.354ZM-0.595,6.005C1.577,6.005 3.066,4.941 3.066,2.94C3.066,1.024 1.661,-0.084 -0.553,-0.084L-6.727,-0.084L-6.727,6.005L-0.595,6.005ZM-14.178,-6.045L0.512,-6.045C3.663,-6.045 6.005,-5.277 7.622,-3.959C9.369,-2.51 10.263,-0.552 10.263,1.876C10.263,4.898 8.688,6.815 6.005,7.837L6.005,7.963C9.325,8.985 11.455,11.796 11.455,15.415C11.455,18.481 10.347,20.695 8.347,22.228C6.558,23.632 4.045,24.399 0.853,24.399L-14.178,24.399L-14.178,-6.045Z" style="fill:rgb(7,36,60);fill-rule:nonzero;"/>
        </g>
        <g transform="matrix(0.999999,0,0,0.999999,305.046,553.558)">
            <path d="M0,8.644L-2.3,1.278C-2.811,-0.298 -3.492,-3.023 -3.492,-3.023L-3.577,-3.023C-3.577,-3.023 -4.302,-0.298 -4.811,1.278L-7.153,8.644L0,8.644ZM-7.281,-10.9L0.467,-10.9L11.453,19.544L3.533,19.544L1.745,14.052L-8.899,14.052L-10.645,19.544L-18.224,19.544L-7.281,-10.9Z" style="fill:rgb(7,36,60);fill-rule:nonzero;"/>
        </g>
        <g transform="matrix(0.999999,0,0,0.999999,319.717,573.102)">
            <path d="M0,-30.444L7.536,-30.444L7.536,-6.386L21.205,-6.386L21.205,0L0,0L0,-30.444Z" style="fill:rgb(7,36,60);fill-rule:nonzero;"/>
        </g>
        <g transform="matrix(0.999999,0,0,0.999999,346.086,570.547)">
            <path d="M0,-25.334L-10.303,-25.334L-10.303,-27.889L13.114,-27.889L13.114,-25.334L2.853,-25.334L2.853,2.555L0,2.555L0,-25.334Z" style="fill:rgb(7,36,60);fill-rule:nonzero;"/>
        </g>
        <g transform="matrix(0.999999,0,0,0.999999,404.967,554.58)">
            <path d="M0,6.6L-4.173,-4.769C-4.811,-6.472 -5.706,-9.197 -5.706,-9.197L-5.791,-9.197C-5.791,-9.197 -6.6,-6.599 -7.281,-4.769L-11.539,6.6L0,6.6ZM-7.367,-11.922L-4.13,-11.922L7.452,18.522L4.386,18.522L0.852,8.942L-12.391,8.942L-15.967,18.522L-18.863,18.522L-7.367,-11.922Z" style="fill:rgb(7,36,60);fill-rule:nonzero;"/>
        </g>
        <g transform="matrix(0.999999,0,0,0.999999,425.356,545.17)">
            <path d="M0,25.419C7.281,25.419 10.433,20.524 10.433,12.816C10.433,5.109 7.58,0 0.298,0L-7.578,0L-7.578,25.419L0,25.419ZM-10.431,-2.513L0.383,-2.513C9.367,-2.513 13.413,3.789 13.413,12.816C13.413,21.842 9.07,27.932 0.086,27.932L-10.431,27.932L-10.431,-2.513Z" style="fill:rgb(7,36,60);fill-rule:nonzero;"/>
        </g>
        <g transform="matrix(0.999999,0,0,0.999999,0.41255,-100.577)">
            <rect x="442.185" y="643.236" width="2.853" height="30.444" style="fill:rgb(7,36,60);"/>
        </g>
        <g transform="matrix(0.999999,0,0,0.999999,450.514,573.102)">
            <path d="M0,-30.444L3.108,-30.444L17.116,-9.069C18.65,-6.77 20.139,-4.045 20.139,-4.045L20.225,-4.045L20.225,-30.444L22.95,-30.444L22.95,0L19.969,0L6.003,-21.119C4.598,-23.249 2.809,-26.271 2.809,-26.271L2.725,-26.271L2.725,0L0,0L0,-30.444Z" style="fill:rgb(7,36,60);fill-rule:nonzero;"/>
        </g>
        <g transform="matrix(0.999999,0,0,0.999999,477.165,557.859)">
            <path d="M0,0.043C0,-8.941 5.152,-15.796 14.391,-15.796C20.65,-15.796 25.291,-12.56 26.399,-6.387L23.461,-6.387C22.524,-10.943 19.033,-13.327 14.391,-13.327C6.556,-13.327 2.981,-7.324 2.981,0.043C2.981,7.537 6.77,13.327 14.008,13.327C21.035,13.327 24.057,8.473 24.057,3.193L24.057,2.129L14.264,2.129L14.264,-0.384L26.867,-0.384L26.867,15.243L24.866,15.243L24.269,10.388L24.142,10.388C22.566,12.859 19.586,15.839 13.966,15.839C5.067,15.839 0,9.154 0,0.043" style="fill:rgb(7,36,60);fill-rule:nonzero;"/>
        </g>
        <g transform="matrix(0.999999,0,0,0.999999,120.679,583.717)">
            <path d="M0,-80.587L0,-61.25L26.118,-61.269L26.118,0.098L48.668,0.092L48.653,-61.37L74.708,-61.269L74.708,-80.685L0,-80.587Z" style="fill:rgb(7,36,60);fill-rule:nonzero;"/>
        </g>
        <g transform="matrix(0.999999,0,0,0.999999,136.427,558.323)">
            <path d="M0,-58.578C-6.639,-66.907 -16.924,-71.462 -30.436,-71.462C-55.288,-71.462 -70.355,-53.121 -70.355,-29.232C-70.355,-16.665 -66.645,-5.796 -59.222,2.128C-52.701,9.149 -43.48,12.884 -32.685,12.884C-22.904,12.884 -14.696,9.714 -9.634,2.356L-9.41,2.356L-7.611,10.96L7.029,10.96L7.029,-32.647L-25.153,-32.647L-25.153,-16.212L-14.47,-16.212C-15.931,-10.777 -20.093,-6.136 -28.637,-6.136C-39.995,-6.136 -46.516,-15.986 -46.516,-29.232C-46.516,-42.478 -40.781,-51.988 -29.537,-51.988C-24.953,-51.988 -20.979,-50.597 -18.631,-47.984L-18.683,-58.578L0,-58.578Z" style="fill:rgb(7,36,60);fill-rule:nonzero;"/>
        </g>
        <g transform="matrix(-0.999999,0,0,0.999999,677.999,-49.8273)">
            <rect x="173.832" y="632.378" width="329.923" height="1.41" style="fill:rgb(203,34,131);"/>
        </g>
    </g>
</svg>
