<?xml version="1.0" encoding="utf-8"?>
<!-- Generator: Adobe Illustrator 26.0.1, SVG Export Plug-In . SVG Version: 6.00 Build 0)  -->
<svg version="1.1" id="Layer_1" xmlns="http://www.w3.org/2000/svg" xmlns:xlink="http://www.w3.org/1999/xlink" x="0px" y="0px"
	 viewBox="0 0 751.9 194.9" style="enable-background:new 0 0 751.9 194.9;" xml:space="preserve">
<style type="text/css">
	.st0{fill:#0B82B0;}
	.st1{fill-rule:evenodd;clip-rule:evenodd;fill:#0B82B0;}
	.st2{fill-rule:evenodd;clip-rule:evenodd;fill:#87C541;}
	.st3{fill:#87C541;}
</style>
<path class="st0" d="M356.6,1.6c4.9,0,9.6,1,14,2.8c4.4,1.9,8.1,4.4,11.4,7.7c3.3,3.2,5.8,7,7.7,11.4c1.9,4.4,2.8,9,2.8,14v10
	l-20.8-4.6v-5.4c0-4.3-1.5-7.9-4.5-10.8c-3-2.9-6.5-4.4-10.6-4.4c-4.3,0-7.9,1.5-10.8,4.4c-2.9,2.9-4.4,6.5-4.4,10.8
	c0,4.8,0.7,9.3,2.2,13.6c1.4,4.3,3.4,8.5,5.8,12.5c2.2,3.9,4.8,7.9,7.8,11.8c3,3.9,6.1,8,9.2,12.2c3.2,4.2,6.3,8.5,9.4,12.9
	c3,4.4,5.9,9.2,8.4,14.3c2.9,6,5.2,12.4,7,19.1c1.8,6.7,2.7,14.2,2.7,22.4c0,5-1,9.6-2.9,14c-2,4.4-4.6,8.2-7.9,11.4
	c-3.3,3.3-7.2,5.8-11.7,7.7c-4.4,1.9-9.1,2.8-14.1,2.8c-5,0-9.7-0.9-14.1-2.8c-4.5-1.9-8.3-4.4-11.7-7.7c-3.3-3.2-6-7-7.9-11.4
	c-2-4.4-2.9-9-2.9-14v-10l20.8,4.6v5.4c0,4.3,1.6,7.9,4.7,10.7c3.2,2.9,6.9,4.4,11.1,4.4c4.1,0,7.8-1.5,11-4.4
	c3.3-2.9,4.9-6.5,4.9-10.7c0-6.3-0.7-12.1-2.1-17.3c-1.4-5.2-3.3-10-5.6-14.5c-2.4-4.6-5.1-8.9-8.2-12.9c-3.1-4-6.2-8-9.4-11.9
	c-3.2-3.9-6.3-7.9-9.4-12c-3.1-4.1-5.9-8.5-8.5-13.1c-2.9-5.1-5.2-10.7-6.9-16.6c-1.7-6-2.6-12.8-2.6-20.5c0-4.9,0.9-9.6,2.8-14
	c1.9-4.4,4.5-8.2,7.7-11.4c3.2-3.3,7-5.8,11.4-7.7C346.9,2.6,351.6,1.6,356.6,1.6L356.6,1.6z"/>
<path class="st1" d="M466.4,161.9c0,4.4-0.8,8.5-2.5,12.4c-1.7,3.9-3.9,7.2-6.8,10.1c-2.9,2.9-6.2,5.1-10.1,6.8
	c-3.9,1.7-8,2.5-12.3,2.5c-4.4,0-8.5-0.8-12.4-2.5c-3.9-1.7-7.2-3.9-10.1-6.8c-2.9-2.9-5.1-6.2-6.8-10.1c-1.6-3.9-2.5-8-2.5-12.4
	V56.6c0-4.4,0.9-8.5,2.5-12.4c1.7-3.9,3.9-7.2,6.8-10.1c2.9-2.9,6.3-5.1,10.1-6.8c3.8-1.7,8-2.5,12.4-2.5c4.4,0,8.5,0.8,12.3,2.5
	c3.9,1.7,7.2,3.9,10.1,6.8c2.9,2.9,5.2,6.2,6.8,10.1c1.7,3.9,2.5,8,2.5,12.4V161.9L466.4,161.9z M448,161.9V56.6c0-3.8-1.3-7-4-9.5
	c-2.7-2.6-5.8-3.9-9.4-3.9c-3.8,0-7,1.3-9.6,3.9c-2.6,2.6-3.9,5.8-3.9,9.5v105.3c0,3.8,1.3,7,3.9,9.5c2.6,2.6,5.8,3.9,9.6,3.9
	c3.6,0,6.8-1.3,9.4-3.9C446.7,168.8,448,165.7,448,161.9L448,161.9z"/>
<path class="st0" d="M539,161.9c0,4.4-0.8,8.5-2.5,12.4c-1.6,3.9-3.9,7.2-6.8,10.1c-2.9,2.9-6.3,5.1-10.1,6.8
	c-3.9,1.7-8,2.5-12.4,2.5c-4.4,0-8.5-0.8-12.4-2.5c-3.8-1.7-7.2-3.9-10.1-6.8c-2.9-2.9-5.2-6.2-6.8-10.1c-1.7-3.9-2.5-8-2.5-12.4
	V27.5h18.4v134.4c0,3.8,1.3,7,3.9,9.5c2.6,2.6,5.7,3.9,9.5,3.9c3.6,0,6.8-1.3,9.4-3.9c2.7-2.6,4-5.7,4-9.5V27.5H539L539,161.9
	L539,161.9z"/>
<path class="st1" d="M612,190.7h-18.4v-57.6c0-4.7-1.6-8.8-4.9-12.4c-3.3-3.5-7-5.3-11.2-5.3h-10.7v75.4h-18.4V27.5h31.8
	c4.1,0,7.9,0.9,11.6,2.8c3.6,1.9,6.9,4.4,9.8,7.4c2.9,3,5.2,6.5,6.8,10.4c1.7,3.9,2.5,7.9,2.5,12v22.5c0,5.3-1.4,10-4.1,14
	c-2.7,4-6.3,6.8-10.7,8.3c4.4,2,8.1,5.2,11.2,9.7c3.1,4.5,4.7,9.9,4.7,16.2V190.7L612,190.7z M592.4,80.6V63.4c0-5-1.4-9.2-4.2-12.5
	c-2.8-3.3-6.8-5-11.9-5h-9.5v52.4h9.5c4.2,0,8-1.8,11.3-5.3C590.8,89.4,592.4,85.3,592.4,80.6L592.4,80.6z"/>
<path class="st0" d="M684.3,161.9c0,4.4-0.8,8.5-2.5,12.4c-1.7,3.9-3.9,7.2-6.8,10.1c-2.9,2.9-6.2,5.1-10.1,6.8
	c-3.9,1.7-8,2.5-12.4,2.5c-4.4,0-8.5-0.8-12.3-2.5c-3.9-1.7-7.3-3.9-10.1-6.8c-2.9-2.9-5.2-6.2-6.8-10.1c-1.7-3.9-2.5-8-2.5-12.4
	V56.6c0-4.4,0.8-8.5,2.5-12.4c1.6-3.9,3.9-7.2,6.8-10.1c2.8-2.9,6.2-5.1,10.1-6.8c3.8-1.7,8-2.5,12.3-2.5c4.4,0,8.5,0.8,12.4,2.5
	c3.9,1.7,7.2,3.9,10.1,6.8c2.9,2.9,5.1,6.2,6.8,10.1c1.7,3.9,2.5,8,2.5,12.4v5.2h-18.4v-5.2c0-3.8-1.3-7-4-9.5
	c-2.7-2.6-5.8-3.9-9.4-3.9c-3.8,0-6.9,1.3-9.5,3.9c-2.6,2.6-3.8,5.8-3.8,9.5v105.3c0,3.8,1.2,7,3.8,9.5c2.6,2.6,5.7,3.9,9.5,3.9
	c3.7,0,6.8-1.3,9.4-3.9c2.6-2.6,4-5.7,4-9.5v-2l18.4-6.1V161.9L684.3,161.9z"/>
<polygon class="st0" points="746.6,190.7 692.5,190.7 692.5,27.5 746.6,27.5 746.6,45.9 710.9,45.9 710.9,97.6 731.6,97.6 
	731.6,116 710.9,116 710.9,172.3 746.6,172.3 "/>
<path class="st2" d="M77.5,157.8c0,4.9-0.9,9.6-2.8,14c-1.9,4.3-4.4,8.1-7.7,11.4c-3.3,3.3-7,5.8-11.4,7.7c-4.4,1.9-9,2.8-14,2.8
	H5.7V9.4h35.9c5,0,9.6,0.9,14,2.8c4.4,1.9,8.1,4.4,11.4,7.7c3.3,3.2,5.8,7,7.7,11.4c1.9,4.4,2.8,9,2.8,14V157.8L77.5,157.8z
	 M56.7,157.8V45.3c0-4.3-1.5-7.9-4.5-10.8c-3-2.9-6.5-4.4-10.6-4.4H26.5v142.7h15.1c4.1,0,7.7-1.5,10.6-4.4
	C55.2,165.6,56.7,162.1,56.7,157.8L56.7,157.8z"/>
<polygon class="st3" points="142.9,193.6 88.9,193.6 88.9,30.5 142.9,30.5 142.9,48.8 107.3,48.8 107.3,100.6 127.9,100.6 
	127.9,119 107.3,119 107.3,175.3 142.9,175.3 "/>
<path class="st2" d="M213.7,193.6h-18.4V136c0-4.7-1.6-8.8-4.9-12.4c-3.3-3.6-7-5.3-11.2-5.3h-10.7v75.3h-18.4V30.5H182
	c4.1,0,7.9,0.9,11.6,2.8c3.6,1.9,6.9,4.3,9.8,7.4c2.9,3,5.1,6.5,6.8,10.4c1.7,3.9,2.5,7.9,2.5,12v22.5c0,5.3-1.4,10-4.1,14
	c-2.7,4-6.3,6.8-10.7,8.3c4.4,2,8.1,5.2,11.2,9.7c3.1,4.5,4.6,9.9,4.6,16.2L213.7,193.6L213.7,193.6z M194.2,83.6V66.3
	c0-5-1.4-9.1-4.2-12.5c-2.8-3.3-6.8-5-11.9-5h-9.5v52.4h9.5c4.2,0,8-1.8,11.2-5.3C192.6,92.4,194.2,88.3,194.2,83.6L194.2,83.6z"/>
<polygon class="st3" points="241.3,193.6 223,193.6 223,30.5 241.3,30.5 "/>
<polygon class="st3" points="310,30.5 286.4,193.6 269.4,193.6 246.4,30.5 267.5,30.5 279.4,139.6 291.2,30.5 "/>
</svg>
