<?xml version="1.0" encoding="utf-8"?><svg id="Layer_1" data-name="Layer 1" xmlns="http://www.w3.org/2000/svg" viewBox="0 0 792 95.25"><defs><style>.cls-1{fill:#231f20;}</style></defs><path class="cls-1" d="M88.57,30.73l19,50.79H96L92.12,70.21h-19l-4,11.31H57.9L77.11,30.73Zm.64,31.16L82.8,43.25h-.14L76.05,61.89Z"/><path class="cls-1" d="M139.36,30.73a16.29,16.29,0,0,1,6.16,1.1,14.23,14.23,0,0,1,4.69,3,13.13,13.13,0,0,1,3,4.45,14.2,14.2,0,0,1,1,5.44,15.35,15.35,0,0,1-1.88,7.76,11.87,11.87,0,0,1-6.16,5v.14a8.64,8.64,0,0,1,3.42,1.74,9.63,9.63,0,0,1,2.2,2.78,12.78,12.78,0,0,1,1.25,3.52,29.77,29.77,0,0,1,.53,3.84c0,.81.1,1.76.14,2.85s.13,2.2.25,3.34a22.75,22.75,0,0,0,.57,3.24,7.27,7.27,0,0,0,1.18,2.59H144.56a19.47,19.47,0,0,1-1.14-5.76c-.14-2.23-.36-4.36-.64-6.4a10.14,10.14,0,0,0-2.42-5.84c-1.24-1.23-3.25-1.85-6.05-1.85H123.14V81.52H112V30.73Zm-4,23q3.84,0,5.76-1.71t1.92-5.55q0-3.71-1.92-5.37c-1.28-1.12-3.2-1.67-5.76-1.67H123.14v14.3Z"/><path class="cls-1" d="M174.51,30.73V51.78l19.84-21h14L188.45,50.79l21.77,30.73h-14L180.91,58.69l-6.4,6.47V81.52H163.34V30.73Z"/><path class="cls-1" d="M252.69,30.73v9.39H225.87V51h24.62v8.68H225.87V72.13h27.39v9.39H214.7V30.73Z"/><path class="cls-1" d="M256.82,40.12V30.73h41.62v9.39H283.21v41.4H272V40.12Z"/><path class="cls-1" d="M312.81,69a7.92,7.92,0,0,0,2.45,2.88,10.66,10.66,0,0,0,3.59,1.64,17.28,17.28,0,0,0,4.27.53,21.66,21.66,0,0,0,3.2-.25,10.71,10.71,0,0,0,3.2-1,6.85,6.85,0,0,0,2.49-2,4.89,4.89,0,0,0,1-3.17,4.44,4.44,0,0,0-1.32-3.34,10.21,10.21,0,0,0-3.45-2.14,34.62,34.62,0,0,0-4.83-1.49c-1.81-.43-3.63-.9-5.48-1.42a49,49,0,0,1-5.55-1.75,18.84,18.84,0,0,1-4.84-2.66,12.72,12.72,0,0,1-3.45-4.1,12.35,12.35,0,0,1-1.32-5.94,13.25,13.25,0,0,1,1.68-6.79,15.1,15.1,0,0,1,4.37-4.8,19.11,19.11,0,0,1,6.12-2.85,26.3,26.3,0,0,1,6.83-.92,32,32,0,0,1,7.65.89,19,19,0,0,1,6.51,2.88,14.73,14.73,0,0,1,4.52,5.08,15.69,15.69,0,0,1,1.67,7.51H331.3a8.85,8.85,0,0,0-1-3.77,6.23,6.23,0,0,0-2.17-2.35,9.2,9.2,0,0,0-3.09-1.21,19.6,19.6,0,0,0-3.81-.35,13,13,0,0,0-2.7.28,7.21,7.21,0,0,0-2.46,1,6,6,0,0,0-1.81,1.78,4.8,4.8,0,0,0-.71,2.7,4.56,4.56,0,0,0,.57,2.42,5.16,5.16,0,0,0,2.24,1.71A28.41,28.41,0,0,0,321,49.65c2,.52,4.54,1.19,7.72,2,.95.19,2.27.54,3.95,1a19.12,19.12,0,0,1,5,2.39,15.19,15.19,0,0,1,4.3,4.37,12.46,12.46,0,0,1,1.81,7,15.53,15.53,0,0,1-1.35,6.47,13.93,13.93,0,0,1-4,5.16,19.17,19.17,0,0,1-6.61,3.38,31.21,31.21,0,0,1-9.15,1.21,32,32,0,0,1-8.14-1,20.5,20.5,0,0,1-7-3.24,16,16,0,0,1-4.81-5.62,16.79,16.79,0,0,1-1.7-8.11h10.81A9.25,9.25,0,0,0,312.81,69Z"/><path class="cls-1" d="M357.63,30.73l16.86,44.53L392,30.73h7.11V81.52h-4.84V37.63h-.14L376.76,81.52h-4.55L355.49,37.63h-.14V81.52h-4.84V30.73Z"/><path class="cls-1" d="M444.14,30.73v4.12H413.9V53.21h28.31v4.12H413.9V77.4h30.59v4.12H409.06V30.73Z"/><path class="cls-1" d="M468.82,30.73q11.6.29,17.47,6.51t5.87,18.88q0,12.67-5.87,18.89t-17.47,6.51H451.25V30.73ZM466.4,77.4a33.06,33.06,0,0,0,9.43-1.18,15.16,15.16,0,0,0,6.51-3.73,15.42,15.42,0,0,0,3.77-6.62,34.6,34.6,0,0,0,1.21-9.75,34.57,34.57,0,0,0-1.21-9.74,15.36,15.36,0,0,0-3.77-6.62A15.06,15.06,0,0,0,475.83,36a33.06,33.06,0,0,0-9.43-1.18H456.09V77.4Z"/><path class="cls-1" d="M505.17,30.73V81.52h-4.83V30.73Z"/><path class="cls-1" d="M536.05,30.73,556,81.52h-5.19l-6.19-15.79H521.46l-6.11,15.79h-5.13l20.42-50.79ZM543,61.6l-9.82-26L523,61.6Z"/><path class="cls-1" d="M57.27,58.65,74.48,13.34A40.83,40.83,0,0,0,27,78.94l17.3-53.1Z"/><path class="cls-1" d="M580.47,57.37h20.45v23h-1.38V68.18h-.13A18.1,18.1,0,0,1,592.25,78a21.6,21.6,0,0,1-12.47,3.52,23.15,23.15,0,0,1-10-2,20.61,20.61,0,0,1-7.24-5.5,24.06,24.06,0,0,1-4.37-8.16,33.14,33.14,0,0,1-1.48-10,31.42,31.42,0,0,1,1.59-10.09,24.53,24.53,0,0,1,4.54-8.19A21,21,0,0,1,570.08,32a22.67,22.67,0,0,1,9.7-2,23.68,23.68,0,0,1,7.61,1.17,19.23,19.23,0,0,1,6.13,3.34,18,18,0,0,1,4.34,5.2,20.8,20.8,0,0,1,2.3,6.82h-1.37a19,19,0,0,0-2.24-6.23,17.21,17.21,0,0,0-9.71-7.85,22.25,22.25,0,0,0-7.06-1.07,21.05,21.05,0,0,0-9.18,1.92,20.32,20.32,0,0,0-6.82,5.24,22.68,22.68,0,0,0-4.23,7.74,30.24,30.24,0,0,0-1.45,9.47,32,32,0,0,0,1.37,9.46A22.3,22.3,0,0,0,563.61,73a19.62,19.62,0,0,0,6.85,5.23A22.09,22.09,0,0,0,580,80.16a20.46,20.46,0,0,0,7.64-1.42,19,19,0,0,0,6.23-3.92,18.17,18.17,0,0,0,4.17-6,18.67,18.67,0,0,0,1.51-7.54V58.75H580.47Z"/><path class="cls-1" d="M607.94,80.36V31.21H628c5.14,0,8.9,1,11.29,3.06s3.62,5.23,3.72,9.54A11.82,11.82,0,0,1,640.43,52a14,14,0,0,1-7.91,4.45v.14a14.29,14.29,0,0,1,5,1.47,7.89,7.89,0,0,1,3,2.79,10.89,10.89,0,0,1,1.38,4.06,36.74,36.74,0,0,1,.34,5.31c0,.68,0,1.54.07,2.57s.11,2.06.2,3.07.21,1.92.35,2.75a4.23,4.23,0,0,0,.55,1.72h-1.51a8.19,8.19,0,0,1-.56-2c-.13-.86-.24-1.76-.31-2.73s-.11-1.94-.13-2.92,0-1.87,0-2.65a30.29,30.29,0,0,0-.44-5.41,8.46,8.46,0,0,0-1.83-4,8.67,8.67,0,0,0-3.92-2.48,22,22,0,0,0-6.82-.86H609.32V80.36Zm19.75-24.43a19.83,19.83,0,0,0,5.27-.69A12.58,12.58,0,0,0,637.4,53a11.4,11.4,0,0,0,3.1-3.82,12.19,12.19,0,0,0,1.17-5.55c0-3.49-1.1-6.2-3.17-8.16s-5.44-2.92-10.12-2.92H609.32V55.93Z"/><path class="cls-1" d="M648.48,55.79A32.26,32.26,0,0,1,650,45.88a24.55,24.55,0,0,1,4.33-8.2,20.7,20.7,0,0,1,7.09-5.57,23.95,23.95,0,0,1,19.48,0,20.64,20.64,0,0,1,7.1,5.57,24.73,24.73,0,0,1,4.33,8.2,33.92,33.92,0,0,1,0,19.82A24.68,24.68,0,0,1,688,73.89a20.33,20.33,0,0,1-7.1,5.54,24.27,24.27,0,0,1-19.48,0,20.38,20.38,0,0,1-7.09-5.54A24.5,24.5,0,0,1,650,65.7,32.26,32.26,0,0,1,648.48,55.79Zm1.38,0a32,32,0,0,0,1.55,9.77,23.19,23.19,0,0,0,4.2,7.71,19.1,19.1,0,0,0,6.64,5.07,22.57,22.57,0,0,0,17.76,0,19,19,0,0,0,6.64-5.07,23.21,23.21,0,0,0,4.21-7.71,31.79,31.79,0,0,0,0-19.55,23.31,23.31,0,0,0-4.21-7.71A19.11,19.11,0,0,0,680,33.24a22.57,22.57,0,0,0-17.76,0,19.2,19.2,0,0,0-6.64,5.06,23.29,23.29,0,0,0-4.2,7.71A32.07,32.07,0,0,0,649.86,55.79Z"/><path class="cls-1" d="M735.7,31.21V62.05q0,9.92-4.61,14.67t-13.42,4.75q-8.82,0-13.42-4.75t-4.62-14.67V31.21H701V62.05q0,8.88,4.06,13.5c2.7,3.07,6.91,4.61,12.6,4.61s9.89-1.54,12.59-4.61,4.06-7.58,4.06-13.5V31.21Z"/><path class="cls-1" d="M743.14,80.36V31.21H763q7.1,0,11,3.37T778,44.64a13.48,13.48,0,0,1-1.17,5.75,11.77,11.77,0,0,1-3.23,4.19,14.15,14.15,0,0,1-4.93,2.55,21.84,21.84,0,0,1-6.29.86H744.51V80.36ZM763,56.62a17.47,17.47,0,0,0,5.37-.8,12.42,12.42,0,0,0,4.3-2.34,10.9,10.9,0,0,0,2.86-3.75,11.83,11.83,0,0,0,1-5.09q0-5.87-3.34-9T763,32.59H744.51v24Z"/></svg>