<svg xmlns="http://www.w3.org/2000/svg" viewBox="0 0 31.49 31.49"><defs><style>.cls-1{fill:#fff;}</style></defs><g id="Layer_2" data-name="Layer 2"><g id="Layer_1-2" data-name="Layer 1"><path class="cls-1" d="M15.75,0A15.75,15.75,0,1,0,31.49,15.75,15.75,15.75,0,0,0,15.75,0Zm3.89,10.06a.22.22,0,0,1-.21.21H17.75A.74.74,0,0,0,17,11v1.76h2.39a.21.21,0,0,1,.21.23l-.21,2.48a.21.21,0,0,1-.21.19H17v8.23a.21.21,0,0,1-.21.21h-3a.21.21,0,0,1-.21-.21V15.68H12.06a.22.22,0,0,1-.21-.21V13a.21.21,0,0,1,.21-.21h1.51v-2.4a3,3,0,0,1,3-3h2.84a.21.21,0,0,1,.21.21Z"/></g></g></svg>