<svg xmlns="http://www.w3.org/2000/svg" viewBox="0 0 31.49 31.49"><defs><style>.cls-1{fill:#fff;}</style></defs><g id="Layer_2" data-name="Layer 2"><g id="Layer_1-2" data-name="Layer 1"><path class="cls-1" d="M15.75,0A15.75,15.75,0,1,0,31.49,15.75,15.75,15.75,0,0,0,15.75,0Zm9,11.52a.38.38,0,0,1-.08.26,6.4,6.4,0,0,1-1.3,1.35c-.07.06-.19.12-.19.22a10,10,0,0,1-2.66,7.33A9.83,9.83,0,0,1,11,22.92a9.28,9.28,0,0,1-1.85-.74l-.58-.34s-.08-.07,0-.1.07,0,.22,0a6.68,6.68,0,0,0,2.77-.35,4.23,4.23,0,0,0,1.82-1s0,0,0,0-.24,0-.36,0a3.58,3.58,0,0,1-2.67-2.24c0-.09,0-.13.09-.12a3.68,3.68,0,0,0,1.27,0,1.76,1.76,0,0,1-.43-.13,3.43,3.43,0,0,1-2.12-2.74,1.73,1.73,0,0,1,0-.39c0-.09,0-.12.12-.07a3.41,3.41,0,0,0,1.3.37,4.89,4.89,0,0,1-.41-.37,3.4,3.4,0,0,1-.59-4c.07-.1.11-.1.19,0A10.44,10.44,0,0,0,16.4,14c.07,0,.08,0,.07-.08a3.67,3.67,0,0,1,0-1.4,3.46,3.46,0,0,1,.66-1.33,3.51,3.51,0,0,1,1.12-.91,3.43,3.43,0,0,1,1.37-.39,3.34,3.34,0,0,1,2.4.82,1.37,1.37,0,0,1,.17.17.14.14,0,0,0,.14,0,8.84,8.84,0,0,0,1.95-.75.1.1,0,0,1,.09,0s0,.06,0,.09a3.08,3.08,0,0,1-.54,1c-.16.2-.55.68-.82.72a6.35,6.35,0,0,0,1.65-.47c.07,0,.06,0,.06,0Z"/></g></g></svg>