<svg xmlns="http://www.w3.org/2000/svg" viewBox="0 0 31.49 31.49"><defs><style>.cls-1{fill:#fff;}</style></defs><g id="Layer_2" data-name="Layer 2"><g id="Layer_1-2" data-name="Layer 1"><path class="cls-1" d="M15.75,0A15.75,15.75,0,1,0,31.49,15.75,15.75,15.75,0,0,0,15.75,0Zm-3.1,21.8a.23.23,0,0,1-.23.23H9.73a.23.23,0,0,1-.24-.23v-9a.23.23,0,0,1,.24-.23h2.69a.23.23,0,0,1,.23.23ZM11,11.33a1.69,1.69,0,1,1,1.69-1.69A1.68,1.68,0,0,1,11,11.33ZM24,21.8a.23.23,0,0,1-.23.23H21.11a.23.23,0,0,1-.24-.23V17c0-1.27-.45-2.14-1.6-2.14A1.7,1.7,0,0,0,17.66,16a2,2,0,0,0-.11.77V21.8a.23.23,0,0,1-.23.23H14.63a.23.23,0,0,1-.23-.23c0-1.29,0-7.55,0-9a.23.23,0,0,1,.23-.24h2.69a.23.23,0,0,1,.23.23v1.12a3.13,3.13,0,0,1,2.85-1.57c2.07,0,3.63,1.35,3.63,4.27Z"/></g></g></svg>