<svg xmlns="http://www.w3.org/2000/svg" viewBox="0 0 31.49 31.49"><defs><style>.cls-1{fill:#fff;}</style></defs><g id="Layer_2" data-name="Layer 2"><g id="Layer_1-2" data-name="Layer 1"><path class="cls-1" d="M15.75,0A15.75,15.75,0,1,0,31.49,15.75,15.75,15.75,0,0,0,15.75,0ZM23.8,14.63a17.14,17.14,0,0,1-2.09,3.68,23.81,23.81,0,0,1-3.85,4.41,5.73,5.73,0,0,1-2.51,1.34,1.79,1.79,0,0,1-1.72-.51,5.42,5.42,0,0,1-1.34-2.42c-.48-1.69-.93-3.38-1.39-5.07a8.68,8.68,0,0,0-.62-1.63c-.06-.1-.12-.21-.19-.31-.4-.61-.67-.66-1.28-.28a7.06,7.06,0,0,0-.64.42c-.12.08-.2.09-.29,0s-.38-.5-.57-.75c-.08-.09-.1-.17,0-.26a43.73,43.73,0,0,1,3.6-3.06,2.55,2.55,0,0,1,1.57-.58,1.75,1.75,0,0,1,1.45.76,4.33,4.33,0,0,1,.69,1.88c.26,1.55.47,3.1.86,4.62A5.87,5.87,0,0,0,16,18.31c.32.56.66.63,1.1.17A9.86,9.86,0,0,0,19.23,15a2.5,2.5,0,0,0,.1-.9,1,1,0,0,0-.95-1,2.94,2.94,0,0,0-1.18.16c-.17.06-.26,0-.19-.18a5.74,5.74,0,0,1,1.83-2.83,4.22,4.22,0,0,1,3.69-.75,2.18,2.18,0,0,1,1.62,2,6.27,6.27,0,0,1,.09.71A6.14,6.14,0,0,1,23.8,14.63Z"/></g></g></svg>