<?xml version="1.0" encoding="UTF-8"?>
<!-- Generator: Adobe Illustrator 25.2.3, SVG Export Plug-In . SVG Version: 6.00 Build 0)  -->
<svg version="1.1" id="Layer_1" xmlns="http://www.w3.org/2000/svg" xmlns:xlink="http://www.w3.org/1999/xlink" x="0px" y="0px" viewBox="0 0 344.98 119.99" style="enable-background:new 0 0 344.98 119.99;" xml:space="preserve">
<style type="text/css">
	.st0{fill:#FFFFFF;}
</style>
<g>
	<path class="st0" d="M13.06,16.08h41.67l1.04,26.43h-2.6c-0.73-6.25-1.67-14.86-7.08-20.29c-2.71-2.83-5.31-3.3-7.4-3.66v78.45h4.9   v2.48H24.21v-2.48h4.9V18.56c-2.19,0.47-5.1,1.06-8.13,4.72c-4.58,5.54-5.63,13.21-6.35,19.23h-2.61L13.06,16.08z"/>
	<path class="st0" d="M61.09,16.08H78.8c6.04,0.12,14.69,0.24,19.27,9.2c1.14,2.24,2.08,5.54,2.08,10.03   c0,9.08-3.65,13.45-5.63,15.45c-3.44,3.54-6.56,4.48-9.79,5.31c3.96,0.83,9.27,2.01,12.5,7.55c2.19,3.89,2.81,9.32,3.02,12.98   c0.31,3.18,0.42,6.25,0.73,9.44c0.52,6.37,1.04,9.44,3.23,9.44c1.25,0,1.88-0.83,2.61-1.77l1.56,1.89   c-2.08,2.36-3.75,4.25-7.4,4.25c-8.13,0-9.58-9.56-10-12.03c-0.31-2.24-1.04-13.33-1.25-15.81c-1.25-13.8-4.9-14.63-14.17-14.63   v39.64h5.1v2.48H61.09v-2.48h4.9V18.56h-4.9V16.08z M75.57,54.66c4.69,0,5.52,0,6.98-0.35c5.31-1.53,7.29-7.2,7.29-17.93   c0-16.75-4.06-17.93-14.27-17.81V54.66z"/>
	<path class="st0" d="M129.33,16.2h3.86l16.25,80.81h4.9v2.48h-19.9v-2.48h5.11l-4.06-19.94h-16.15l-2.81,13.92   c-0.21,1.06-0.52,2.24-0.52,3.42c0,2.71,1.98,2.71,4.58,2.6v2.48H106.3v-2.48c5,0,6.15-0.83,7.5-7.32L129.33,16.2z M127.66,36.25   l-7.81,38.22h15.21L127.66,36.25z"/>
	<path class="st0" d="M156.31,16.08h15.73c5.63,0,13.23-0.12,19.59,7.9c8.54,10.62,8.54,26.31,8.54,30.67   c0,6.49-0.52,14.98-3.02,23.12c-1.77,5.43-4.38,10.97-8.54,15.34c-5.94,6.25-10.62,6.25-16.77,6.37h-15.52v-2.48h5V18.56h-5V16.08z    M170.89,97.01c4.79,0.12,8.44,0.12,11.88-3.89c5.42-6.25,6.56-19.47,6.56-36.22c0-17.11-0.83-24.42-3.12-30.08   c-3.33-8.26-8.75-8.49-15.31-8.26V97.01z"/>
	<path class="st0" d="M206.31,16.08h36.78v22.06h-2.5c-0.1-2.83-0.52-10.15-5.42-15.1c-4.27-4.48-9.38-4.48-14.38-4.48v36.45   c2.92,0,6.04-0.12,8.54-2.71c3.23-3.42,3.44-8.97,3.65-12.98h2.5v33.86h-2.5c-0.1-2.83-0.31-5.9-1.46-8.73   c-2.5-6.49-7.4-6.61-10.73-6.73v39.29c4.79-0.12,10.21-0.12,14.58-4.36c5.11-5.07,6.15-12.98,6.77-18.52h2.4l-0.94,25.36h-37.3   v-2.48h4.79V18.56h-4.79V16.08z"/>
	<path class="st0" d="M251.42,16.08h17.71c6.04,0.12,14.69,0.24,19.27,9.2c1.15,2.24,2.08,5.54,2.08,10.03   c0,9.08-3.65,13.45-5.62,15.45c-3.44,3.54-6.56,4.48-9.79,5.31c3.96,0.83,9.27,2.01,12.5,7.55c2.19,3.89,2.81,9.32,3.02,12.98   c0.31,3.18,0.42,6.25,0.73,9.44c0.52,6.37,1.04,9.44,3.23,9.44c1.25,0,1.88-0.83,2.6-1.77l1.56,1.89c-2.08,2.36-3.75,4.25-7.4,4.25   c-8.13,0-9.58-9.56-10-12.03c-0.31-2.24-1.04-13.33-1.25-15.81c-1.25-13.8-4.9-14.63-14.17-14.63v39.64h5.1v2.48h-19.59v-2.48h4.9   V18.56h-4.9V16.08z M265.91,54.66c4.69,0,5.52,0,6.98-0.35c5.31-1.53,7.29-7.2,7.29-17.93c0-16.75-4.06-17.93-14.27-17.81V54.66z"/>
	<path class="st0" d="M304.24,71.29c0.73,6.49,1.35,12.86,4.9,18.88c3.12,5.43,6.67,7.2,10.11,7.2c6.56,0,10.42-6.37,10.42-14.16   c0-9.91-5.83-14.98-14.79-22.65c-6.57-5.66-13.23-11.44-13.23-24.42c0-10.5,6.25-21,15.52-21c6.36,0,8.75,3.78,10.42,6.37   l2.29-5.31h2.19l0.42,24.3h-2.6c-1.25-8.02-3.44-22.18-12.61-22.18c-5.1,0-9.27,4.6-9.27,11.8c0,7.67,3.23,10.74,13.54,19.7   c7.71,6.72,14.07,12.39,14.07,26.07c0,12.39-5.83,24.77-16.36,24.77c-7.29,0-11.15-5.66-12.5-7.79l-2.92,6.61h-2.19v-28.2H304.24z"/>
</g>
</svg>