<?xml version="1.0" encoding="utf-8"?>
<!-- Generator: Adobe Illustrator 26.0.0, SVG Export Plug-In . SVG Version: 6.00 Build 0)  -->
<svg version="1.1" id="Layer_1" xmlns="http://www.w3.org/2000/svg" xmlns:xlink="http://www.w3.org/1999/xlink" x="0px" y="0px"
	 viewBox="0 0 468.8 76" style="enable-background:new 0 0 468.8 76;" xml:space="preserve">
<style type="text/css">
	.st0{fill:#FFFFFF;}
	.st1{fill:#6FB7E5;}
	.st2{fill:#F89C1D;}
	.st3{fill-rule:evenodd;clip-rule:evenodd;fill:#FFFFFF;}
</style>
<g>
	<path class="st0" d="M259.2,66l-9.9-49.4v44.8c-0.1,2.2,0.3,2.7,2.1,2.7h1.1V66h-8.6v-1.9h1.1c1.8,0,2.2-0.5,2.2-2.7V11.1h-2.8V9.3
		h10l8,41.6l7.8-41.6h10v1.9h-2.8v53h2.8V66h-11.8v-1.9h2.8V16.7L261.5,66H259.2z"/>
	<path class="st0" d="M290.6,50.1l-1.8,11.1c-0.3,1.5-0.3,1.5-0.3,1.9c0,0.7,0.5,1,1.9,1h0.8V66h-8.8v-1.9h0.9
		c2.2-0.1,2.7-0.7,3.3-3.8l9.2-51h2.7l9.5,54.9h2.8V66h-12.1v-1.9h2.9l-2.3-14H290.6z M295.6,23.4l-4.4,24.8h8.1L295.6,23.4z"/>
	<path class="st0" d="M332.5,29.2h-2v-4.6c0-7.8-2.9-13.9-6.6-13.9c-2,0-3.6,1.3-4.6,3.6c-1.1,2.4-1.5,6-1.5,12.8v21.8
		c0,11.5,1.4,15.9,5.2,15.9c1.3,0,2.5-0.8,3-1.9c0.7-1.4,0.8-2.3,0.8-6.5V43.5h-2.8v-1.9h11.8v1.9h-2.8v14.8c-2.7,5.4-6,8.2-9.9,8.2
		c-7,0-12.3-9.7-12.3-22.4v-13c0-12.8,5.6-22.4,13.1-22.4c2.2,0,3.8,0.8,5.6,2.7l1.2-2.2h1.8L332.5,29.2z"/>
	<path class="st0" d="M341.8,50.1L340,61.2c-0.3,1.5-0.3,1.5-0.3,1.9c0,0.7,0.5,1,1.9,1h0.8V66h-8.8v-1.9h0.9
		c2.2-0.1,2.7-0.7,3.3-3.8l9.2-51h2.7l9.5,54.9h2.8V66h-12.1v-1.9h2.9l-2.3-14H341.8z M346.8,23.4l-4.4,24.8h8.1L346.8,23.4z"/>
	<path class="st0" d="M386.4,66h-22v-1.7l16-53.2h-1c-7.2-0.2-10.9,3.7-11.2,11.6V26h-2V9.3H387V11l-15.9,53.2h1.1
		c8.4,0.3,11.9-3.3,12.9-13.4v-3.2h2L386.4,66z"/>
	<polygon class="st0" points="399.4,64.1 402.2,64.1 402.2,66 390.4,66 390.4,64.1 393.2,64.1 393.2,11.1 390.4,11.1 390.4,9.3 
		402.2,9.3 402.2,11.1 399.4,11.1 	"/>
	<path class="st0" d="M426.6,66l-15.8-48.4v43.8c0,2.2,0.3,2.6,2.2,2.7h1.1V66h-8.7v-1.9h1.1c1.9-0.1,2.2-0.5,2.2-2.7V13.8
		c-0.1-2.6-0.3-2.8-3.3-2.7V9.3h9.5l13.7,43.1V13.8c-0.1-2.6-0.3-2.8-3.3-2.7V9.3h8.8v1.9c-3.1-0.1-3.3,0.2-3.4,2.7V66H426.6z"/>
	<path class="st0" d="M446.4,64.1h0.9c7.1,0,10.4-4.1,11.2-13.9h2L459.9,66h-22.5v-1.9h2.8v-53h-2.8V9.3h22.1v14.2h-2
		c-0.4-8.4-4-12.6-10.5-12.3h-0.6V36c4.6,0.1,6.5-2.8,6.7-10.3h2v22.4h-2c-0.2-7-2.4-10.4-6.7-10.2V64.1z"/>
	<path class="st0" d="M9,9.4h28.5l0.7,18.1h-1.8c-0.5-4.3-1.1-10.2-4.9-13.9c-1.9-1.9-3.6-2.3-5.1-2.5v53.7h3.4v1.7H16.6v-1.7H20
		V11.1c-1.5,0.3-3.5,0.7-5.6,3.2c-3.1,3.8-3.9,9-4.4,13.2H8.3L9,9.4z"/>
	<path class="st0" d="M41.9,9.4H54c4.1,0.1,10.1,0.2,13.2,6.3c0.8,1.5,1.4,3.8,1.4,6.9c0,6.2-2.5,9.2-3.9,10.6
		c-2.4,2.4-4.5,3.1-6.7,3.6c2.7,0.6,6.3,1.4,8.6,5.2c1.5,2.7,1.9,6.4,2.1,8.9c0.2,2.2,0.3,4.3,0.5,6.5c0.4,4.4,0.7,6.5,2.2,6.5
		c0.9,0,1.3-0.6,1.8-1.2l1.1,1.3c-1.4,1.6-2.6,2.9-5.1,2.9c-5.6,0-6.6-6.5-6.8-8.2c-0.2-1.5-0.7-9.1-0.9-10.8
		c-0.9-9.5-3.4-10-9.7-10v27.1h3.5v1.7H41.9v-1.7h3.4V11.1h-3.4V9.4z M51.8,35.8c3.2,0,3.8,0,4.8-0.2c3.6-1.1,5-4.9,5-12.3
		c0-11.5-2.8-12.3-9.8-12.2V35.8z"/>
	<path class="st0" d="M88.6,9.5h2.6l11.1,55.3h3.4v1.7H92.1v-1.7h3.5l-2.8-13.7H81.8l-1.9,9.5c-0.1,0.7-0.4,1.5-0.4,2.3
		c0,1.9,1.4,1.9,3.1,1.8v1.7h-9.8v-1.7c3.4,0,4.2-0.6,5.1-5L88.6,9.5z M87.5,23.2l-5.3,26.2h10.4L87.5,23.2z"/>
	<path class="st0" d="M107.1,9.4h10.8c3.9,0,9.1-0.1,13.4,5.4c5.8,7.3,5.8,18,5.8,21c0,4.4-0.4,10.3-2.1,15.8
		c-1.2,3.7-3,7.5-5.9,10.5c-4.1,4.3-7.3,4.3-11.5,4.4h-10.6v-1.7h3.4V11.1h-3.4V9.4z M117.1,64.8c3.3,0.1,5.8,0.1,8.1-2.7
		c3.7-4.3,4.5-13.3,4.5-24.8c0-11.7-0.6-16.7-2.1-20.6c-2.3-5.7-6-5.8-10.5-5.7V64.8z"/>
	<path class="st0" d="M141.3,9.4h25.2v15.1h-1.7c-0.1-1.9-0.4-6.9-3.7-10.3c-2.9-3.1-6.4-3.1-9.8-3.1v25c2,0,4.1-0.1,5.8-1.9
		c2.2-2.3,2.4-6.1,2.5-8.9h1.7v23.2h-1.7c-0.1-1.9-0.2-4-1-6c-1.7-4.4-5.1-4.5-7.3-4.6v26.9c3.3-0.1,7-0.1,10-3
		c3.5-3.5,4.2-8.9,4.6-12.7h1.6l-0.6,17.4h-25.5v-1.7h3.3V11.1h-3.3V9.4z"/>
	<path class="st0" d="M172.2,9.4h12.1c4.1,0.1,10.1,0.2,13.2,6.3c0.8,1.5,1.4,3.8,1.4,6.9c0,6.2-2.5,9.2-3.8,10.6
		c-2.4,2.4-4.5,3.1-6.7,3.6c2.7,0.6,6.3,1.4,8.6,5.2c1.5,2.7,1.9,6.4,2.1,8.9c0.2,2.2,0.3,4.3,0.5,6.5c0.4,4.4,0.7,6.5,2.2,6.5
		c0.9,0,1.3-0.6,1.8-1.2l1.1,1.3c-1.4,1.6-2.6,2.9-5.1,2.9c-5.6,0-6.6-6.5-6.8-8.2c-0.2-1.5-0.7-9.1-0.9-10.8
		c-0.9-9.5-3.4-10-9.7-10v27.1h3.5v1.7h-13.4v-1.7h3.4V11.1h-3.4V9.4z M182.1,35.8c3.2,0,3.8,0,4.8-0.2c3.6-1.1,5-4.9,5-12.3
		c0-11.5-2.8-12.3-9.8-12.2V35.8z"/>
	<path class="st0" d="M208.4,47.2c0.5,4.4,0.9,8.8,3.4,12.9c2.1,3.7,4.6,4.9,6.9,4.9c4.5,0,7.1-4.4,7.1-9.7c0-6.8-4-10.3-10.1-15.5
		c-4.5-3.9-9.1-7.8-9.1-16.7c0-7.2,4.3-14.4,10.6-14.4c4.4,0,6,2.6,7.1,4.4l1.6-3.6h1.5l0.3,16.6h-1.8c-0.9-5.5-2.4-15.2-8.6-15.2
		c-3.5,0-6.3,3.1-6.3,8.1c0,5.3,2.2,7.4,9.3,13.5c5.3,4.6,9.6,8.5,9.6,17.8c0,8.5-4,17-11.2,17c-5,0-7.6-3.9-8.6-5.3l-2,4.5h-1.5
		V47.2H208.4z"/>
</g>
</svg>
