<?xml version="1.0" encoding="UTF-8"?>
<!-- Generator: Adobe Illustrator 25.2.3, SVG Export Plug-In . SVG Version: 6.00 Build 0)  -->
<svg version="1.1" id="Layer_1" xmlns="http://www.w3.org/2000/svg" xmlns:xlink="http://www.w3.org/1999/xlink" x="0px" y="0px" viewBox="0 0 861.05 111.5" style="enable-background:new 0 0 861.05 111.5;" xml:space="preserve">
<style type="text/css">
	.st0{fill:#FFFFFF;}
</style>
<g>
	<g>
		<path class="st0" d="M477.72,108.99L458.93,14.9v85.35c-0.16,4.21,0.65,5.18,4.05,5.18h2.11v3.56h-16.36v-3.56h2.11    c3.4,0,4.21-0.97,4.21-5.18V4.53h-5.34V0.97h18.95l15.22,79.19l14.9-79.19h19.11v3.56h-5.34v100.9h5.34v3.56h-22.51v-3.56h5.34    V15.06l-18.62,93.93H477.72z"/>
		<path class="st0" d="M537.64,78.71l-3.4,21.22c-0.49,2.91-0.49,2.91-0.49,3.56c0,1.3,0.97,1.94,3.56,1.94h1.46v3.56h-16.68v-3.56    h1.78c4.21-0.16,5.18-1.3,6.32-7.29l17.49-97.17h5.18L571,105.43h5.34v3.56h-23v-3.56h5.51l-4.37-26.72H537.64z M547.03,27.86    l-8.42,47.29H554L547.03,27.86z"/>
		<path class="st0" d="M617.32,38.87h-3.72v-8.75c0-14.9-5.51-26.56-12.63-26.56c-3.72,0-6.8,2.43-8.74,6.8    c-2.11,4.53-2.91,11.5-2.91,24.29v41.46c0,21.86,2.75,30.28,9.88,30.28c2.43,0,4.7-1.46,5.67-3.56c1.29-2.59,1.46-4.37,1.46-12.47    V66.24h-5.34v-3.56h22.51v3.56h-5.34v28.18c-5.18,10.36-11.34,15.55-18.79,15.55c-13.28,0-23.48-18.46-23.48-42.59V42.59    C575.86,18.3,586.55,0,600.8,0c4.21,0,7.29,1.46,10.69,5.18l2.27-4.21h3.4L617.32,38.87z"/>
		<path class="st0" d="M635.14,78.71l-3.4,21.22c-0.49,2.91-0.49,2.91-0.49,3.56c0,1.3,0.97,1.94,3.56,1.94h1.46v3.56h-16.68v-3.56    h1.78c4.21-0.16,5.18-1.3,6.32-7.29l17.49-97.17h5.18l18.14,104.46h5.34v3.56h-23v-3.56h5.51l-4.37-26.72H635.14z M644.53,27.86    l-8.42,47.29h15.39L644.53,27.86z"/>
		<path class="st0" d="M720,108.99h-41.95v-3.24L708.5,4.53h-1.94c-13.77-0.32-20.73,6.96-21.38,22.03v6.32h-3.73V0.97h39.68v3.24    l-30.29,101.22h2.11c16.03,0.49,22.67-6.32,24.62-25.43v-6.15h3.73L720,108.99z"/>
		<path class="st0" d="M744.77,105.43h5.34v3.56H727.6v-3.56h5.35V4.53h-5.35V0.97h22.51v3.56h-5.34V105.43z"/>
		<path class="st0" d="M796.6,108.99l-30.12-92.15v83.41c0,4.21,0.65,5.02,4.21,5.18h2.11v3.56h-16.52v-3.56h2.11    c3.56-0.16,4.21-0.97,4.21-5.18V9.72c-0.16-4.86-0.65-5.34-6.32-5.18V0.97h18.14l26.07,82.11V9.72c-0.16-4.86-0.49-5.34-6.32-5.18    V0.97h16.68v3.56c-5.99-0.16-6.32,0.32-6.48,5.18v99.28H796.6z"/>
		<path class="st0" d="M834.17,105.43h1.78c13.44,0,19.76-7.77,21.38-26.4h3.73l-1.13,29.96H817v-3.56h5.35V4.53H817V0.97h42.11    v27.05h-3.73c-0.81-16.03-7.61-23.97-20.08-23.48h-1.13v47.45c8.74,0.16,12.47-5.34,12.79-19.6h3.73v42.59h-3.73    c-0.32-13.28-4.54-19.76-12.79-19.43V105.43z"/>
	</g>
	<g>
		<path class="st0" d="M1.36,1.23h54.33l1.36,34.45h-3.39c-0.95-8.15-2.17-19.38-9.24-26.45c-3.53-3.69-6.93-4.31-9.64-4.77v102.28    h6.38v3.23H15.89v-3.23h6.38V4.46c-2.85,0.62-6.66,1.38-10.59,6.15C5.7,17.84,4.35,27.84,3.4,35.68H0L1.36,1.23z"/>
		<path class="st0" d="M63.97,1.23h23.09c7.88,0.15,19.15,0.31,25.13,12c1.49,2.92,2.72,7.23,2.72,13.07    c0,11.84-4.75,17.53-7.33,20.15c-4.48,4.61-8.56,5.84-12.77,6.92c5.16,1.08,12.09,2.61,16.3,9.84c2.85,5.08,3.67,12.15,3.94,16.92    c0.41,4.15,0.54,8.15,0.95,12.3c0.68,8.31,1.36,12.3,4.21,12.3c1.63,0,2.44-1.08,3.4-2.31l2.04,2.46    c-2.72,3.08-4.89,5.54-9.64,5.54c-10.59,0-12.49-12.46-13.04-15.69c-0.41-2.92-1.36-17.38-1.63-20.61    c-1.63-17.99-6.38-19.07-18.47-19.07v51.68h6.66v3.23H63.97v-3.23h6.38V4.46h-6.38V1.23z M82.85,51.52c6.11,0,7.2,0,9.1-0.46    c6.93-2,9.51-9.38,9.51-23.38c0-21.84-5.3-23.38-18.61-23.22V51.52z"/>
		<path class="st0" d="M152.93,1.38h5.03l21.19,105.35h6.38v3.23h-25.94v-3.23h6.66l-5.3-25.99h-21.05l-3.67,18.15    c-0.27,1.38-0.68,2.92-0.68,4.46c0,3.54,2.58,3.54,5.98,3.38v3.23h-18.61v-3.23c6.52,0,8.01-1.08,9.78-9.54L152.93,1.38z     M150.76,27.53l-10.19,49.83h19.83L150.76,27.53z"/>
		<path class="st0" d="M188.11,1.23h20.51c7.33,0,17.25-0.15,25.53,10.3c11.14,13.84,11.14,34.3,11.14,39.99    c0,8.46-0.68,19.53-3.94,30.15c-2.31,7.07-5.7,14.3-11.14,19.99c-7.74,8.15-13.85,8.15-21.87,8.3h-20.24v-3.23h6.52V4.46h-6.52    V1.23z M207.12,106.74c6.25,0.15,11,0.15,15.48-5.08c7.06-8.15,8.56-25.38,8.56-47.22c0-22.3-1.09-31.84-4.07-39.22    c-4.35-10.76-11.41-11.07-19.97-10.76V106.74z"/>
		<path class="st0" d="M253.3,1.23h47.94v28.76h-3.26c-0.13-3.69-0.68-13.23-7.06-19.69c-5.57-5.84-12.22-5.84-18.74-5.84v47.52    c3.8,0,7.88-0.15,11.14-3.54c4.21-4.46,4.48-11.69,4.75-16.92h3.26v44.14h-3.26c-0.14-3.69-0.41-7.69-1.9-11.38    c-3.26-8.46-9.64-8.61-13.99-8.77v51.22c6.25-0.16,13.31-0.16,19.01-5.69c6.66-6.61,8.01-16.92,8.83-24.15h3.12l-1.22,33.07H253.3    v-3.23h6.25V4.46h-6.25V1.23z"/>
		<path class="st0" d="M312.11,1.23h23.09c7.88,0.15,19.15,0.31,25.13,12c1.49,2.92,2.72,7.23,2.72,13.07    c0,11.84-4.75,17.53-7.33,20.15c-4.48,4.61-8.56,5.84-12.77,6.92c5.16,1.08,12.09,2.61,16.3,9.84c2.85,5.08,3.67,12.15,3.94,16.92    c0.41,4.15,0.54,8.15,0.95,12.3c0.68,8.31,1.36,12.3,4.21,12.3c1.63,0,2.44-1.08,3.4-2.31l2.04,2.46    c-2.72,3.08-4.89,5.54-9.64,5.54c-10.59,0-12.49-12.46-13.04-15.69c-0.41-2.92-1.36-17.38-1.63-20.61    c-1.63-17.99-6.38-19.07-18.47-19.07v51.68h6.66v3.23h-25.54v-3.23h6.38V4.46h-6.38V1.23z M330.99,51.52c6.11,0,7.2,0,9.1-0.46    c6.93-2,9.51-9.38,9.51-23.38c0-21.84-5.3-23.38-18.61-23.22V51.52z"/>
		<path class="st0" d="M380.97,73.21c0.95,8.46,1.77,16.76,6.39,24.61c4.07,7.08,8.69,9.38,13.17,9.38c8.56,0,13.58-8.3,13.58-18.46    c0-12.92-7.6-19.53-19.28-29.53c-8.56-7.38-17.25-14.92-17.25-31.84c0-13.69,8.15-27.38,20.24-27.38c8.29,0,11.41,4.92,13.58,8.31    l2.99-6.92h2.85l0.54,31.68h-3.4c-1.63-10.46-4.48-28.91-16.43-28.91c-6.66,0-12.09,6-12.09,15.38c0,10,4.21,14,17.66,25.69    c10.05,8.77,18.34,16.15,18.34,33.99c0,16.15-7.61,32.3-21.32,32.3c-9.51,0-14.53-7.38-16.3-10.15l-3.8,8.61h-2.85V73.21H380.97z"/>
	</g>
</g>
</svg>